<svg width="108" height="95" viewBox="0 0 108 95" fill="none" xmlns="http://www.w3.org/2000/svg">
<g filter="url(#filter0_d_1075_5)">
<path d="M37.4473 50.8086C37.4473 48.6927 37.8867 46.8535 38.7656 45.291C39.6445 43.7285 40.8001 42.4102 42.2324 41.3359C43.6647 40.2617 45.3086 39.3828 47.1641 38.6992C49.0521 38.0156 50.9727 37.4785 52.9258 37.0879C54.9115 36.6973 56.8646 36.4206 58.7852 36.2578C60.7383 36.0951 62.5124 35.9811 64.1074 35.916V33.9141C64.1074 32.1237 63.8796 30.5938 63.4238 29.3242C62.9681 28.0221 62.3333 26.9479 61.5195 26.1016C60.7057 25.2552 59.7129 24.6367 58.541 24.2461C57.4017 23.8229 56.1322 23.6113 54.7324 23.6113C53.7559 23.6113 52.7956 23.6927 51.8516 23.8555C50.9076 23.9857 49.931 24.2461 48.9219 24.6367C47.9128 24.9948 46.8548 25.4993 45.748 26.1504C44.6413 26.7689 43.4368 27.5827 42.1348 28.5918L41.7441 28.3965L44.4297 22.6836C46.2526 21.9023 48.0104 21.3652 49.7031 21.0723C51.3958 20.7467 53.2676 20.584 55.3184 20.584C58.1178 20.584 60.5104 20.9421 62.4961 21.6582C64.5143 22.3418 66.1582 23.2858 67.4277 24.4902C68.6973 25.6621 69.625 27.0618 70.2109 28.6895C70.8294 30.2845 71.1387 31.9935 71.1387 33.8164V54.8125C71.1387 56.375 71.6595 57.5957 72.7012 58.4746C73.7428 59.3535 75.1263 59.793 76.8516 59.793C78.9674 59.793 80.9694 59.1745 82.8574 57.9375C84.7454 56.7005 86.3893 54.9915 87.7891 52.8105C89.2214 50.6296 90.3444 48.0417 91.1582 45.0469C92.0046 42.0521 92.4277 38.7969 92.4277 35.2812C92.4277 30.7565 91.5814 26.6061 89.8887 22.8301C88.2285 19.0215 85.8848 15.7663 82.8574 13.0645C79.8626 10.3301 76.2819 8.21419 72.1152 6.7168C67.9811 5.18685 63.4238 4.42188 58.4434 4.42188C52.584 4.42188 47.2292 5.41471 42.3789 7.40039C37.5286 9.38607 33.3457 12.1693 29.8301 15.75C26.347 19.2982 23.6452 23.5299 21.7246 28.4453C19.804 33.3281 18.8438 38.6829 18.8438 44.5098C18.8438 50.0111 19.8203 55.0078 21.7734 59.5C23.7591 63.9922 26.5098 67.8496 30.0254 71.0723C33.541 74.2624 37.7077 76.7201 42.5254 78.4453C47.3757 80.2031 52.6816 81.082 58.4434 81.082C60.9499 81.082 63.4401 80.903 65.9141 80.5449C68.388 80.1868 70.8457 79.6009 73.2871 78.7871C75.7285 78.0059 78.1374 76.9642 80.5137 75.6621C82.9225 74.36 85.2988 72.765 87.6426 70.877L90.0352 73.709C85.1523 77.3548 80.0579 80.0892 74.752 81.9121C69.446 83.7676 63.9121 84.6953 58.1504 84.6953C51.0215 84.6953 44.5762 83.6536 38.8145 81.5703C33.0527 79.487 28.1211 76.6061 24.0195 72.9277C19.9505 69.2819 16.8092 64.9525 14.5957 59.9395C12.4147 54.8939 11.3242 49.4089 11.3242 43.4844C11.3242 39.6758 11.8613 35.9811 12.9355 32.4004C14.0098 28.7871 15.5397 25.4017 17.5254 22.2441C19.5111 19.0866 21.9036 16.1895 24.7031 13.5527C27.5026 10.916 30.6439 8.65365 34.127 6.76562C37.61 4.8776 41.3698 3.41276 45.4062 2.37109C49.4753 1.32943 53.7559 0.808594 58.248 0.808594C63.9447 0.808594 69.153 1.65495 73.873 3.34766C78.5931 5.04036 82.6296 7.43294 85.9824 10.5254C89.3678 13.5853 91.9883 17.2637 93.8438 21.5605C95.6992 25.8574 96.627 30.61 96.627 35.8184C96.627 39.4967 96.1224 43.0124 95.1133 46.3652C94.1042 49.6855 92.6882 52.6152 90.8652 55.1543C89.0749 57.6934 86.9264 59.7279 84.4199 61.2578C81.9134 62.7552 79.1465 63.5039 76.1191 63.5039C73.3197 63.5039 71.0085 62.9831 69.1855 61.9414C67.3952 60.8997 66.1419 59.6465 65.4258 58.1816C64.8398 58.735 64.0911 59.321 63.1797 59.9395C62.2682 60.5579 61.2428 61.1276 60.1035 61.6484C58.9642 62.1367 57.7109 62.5599 56.3438 62.918C55.0091 63.2435 53.6094 63.4062 52.1445 63.4062C47.457 63.4062 43.8275 62.3158 41.2559 60.1348C38.7168 57.9538 37.4473 54.8451 37.4473 50.8086ZM64.1074 39.0898C61.666 39.1224 59.3223 39.2689 57.0762 39.5293C54.8301 39.7897 52.8281 40.3268 51.0703 41.1406C49.3451 41.9219 47.9616 43.0612 46.9199 44.5586C45.9108 46.056 45.4062 48.0417 45.4062 50.5156C45.4062 53.6406 46.2038 56.0332 47.7988 57.6934C49.3939 59.3535 51.5749 60.1836 54.3418 60.1836C55.6439 60.1836 56.8158 60.0046 57.8574 59.6465C58.9316 59.2884 59.8757 58.849 60.6895 58.3281C61.5033 57.7747 62.1868 57.1725 62.7402 56.5215C63.3262 55.8379 63.7819 55.2031 64.1074 54.6172V39.0898Z" fill="#585858"/>
<path d="M4.83008 82.0098H103.121V86.9902H4.83008V82.0098Z" fill="#585858"/>
</g>
<defs>
<filter id="filter0_d_1075_5" x="0.828125" y="0.808594" width="106.293" height="94.1816" filterUnits="userSpaceOnUse" color-interpolation-filters="sRGB">
<feFlood flood-opacity="0" result="BackgroundImageFix"/>
<feColorMatrix in="SourceAlpha" type="matrix" values="0 0 0 0 0 0 0 0 0 0 0 0 0 0 0 0 0 0 127 0" result="hardAlpha"/>
<feOffset dy="4"/>
<feGaussianBlur stdDeviation="2"/>
<feComposite in2="hardAlpha" operator="out"/>
<feColorMatrix type="matrix" values="0 0 0 0 0 0 0 0 0 0 0 0 0 0 0 0 0 0 0.25 0"/>
<feBlend mode="normal" in2="BackgroundImageFix" result="effect1_dropShadow_1075_5"/>
<feBlend mode="normal" in="SourceGraphic" in2="effect1_dropShadow_1075_5" result="shape"/>
</filter>
</defs>
</svg>
