<svg width="101" height="87" viewBox="0 0 101 87" fill="none" xmlns="http://www.w3.org/2000/svg">
<path d="M7.53125 71.8047C7.72656 71.1211 7.9056 70.2747 8.06836 69.2656C8.23112 68.2565 8.3776 67.0033 8.50781 65.5059C8.63802 64.0085 8.73568 62.2344 8.80078 60.1836C8.86589 58.1003 8.89844 55.6751 8.89844 52.9082V21.1211C8.89844 18.3542 8.86589 15.9453 8.80078 13.8945C8.73568 11.8112 8.63802 10.0208 8.50781 8.52344C8.3776 6.99349 8.23112 5.72396 8.06836 4.71484C7.9056 3.70573 7.72656 2.85938 7.53125 2.17578V1.98047H19.2012V2.17578C19.0059 2.85938 18.8105 3.70573 18.6152 4.71484C18.4525 5.72396 18.306 6.99349 18.1758 8.52344C18.0781 10.0208 17.9805 11.8112 17.8828 13.8945C17.8177 15.9453 17.7852 18.3542 17.7852 21.1211V52.9082C17.7852 55.6751 17.8177 58.1003 17.8828 60.1836C17.9805 62.2344 18.0781 64.0085 18.1758 65.5059C18.306 67.0033 18.4525 68.2565 18.6152 69.2656C18.8105 70.2747 19.0059 71.1211 19.2012 71.8047V72H7.53125V71.8047ZM95.2754 63.7969C95.2754 64.1549 95.2266 64.5293 95.1289 64.9199C95.0638 65.3105 94.8848 65.6361 94.5918 65.8965C93.127 67.0033 91.5319 68.0286 89.8066 68.9727C88.1139 69.8841 86.2747 70.6816 84.2891 71.3652C82.3034 72.0488 80.1549 72.5697 77.8438 72.9277C75.5651 73.3184 73.1074 73.5137 70.4707 73.5137C64.5462 73.5137 59.1426 72.651 54.2598 70.9258C49.377 69.168 45.1777 66.694 41.6621 63.5039C38.179 60.3138 35.4772 56.4889 33.5566 52.0293C31.6361 47.5371 30.6758 42.5566 30.6758 37.0879C30.6758 33.9954 31.0664 30.9518 31.8477 27.957C32.6615 24.9622 33.8333 22.1139 35.3633 19.4121C36.8932 16.7103 38.7812 14.2363 41.0273 11.9902C43.2734 9.71159 45.8288 7.74219 48.6934 6.08203C51.5905 4.42188 54.7643 3.13607 58.2148 2.22461C61.6979 1.2806 65.4577 0.808594 69.4941 0.808594C71.0566 0.808594 72.6517 0.889974 74.2793 1.05273C75.9069 1.18294 77.5182 1.39453 79.1133 1.6875C80.7083 1.94792 82.2383 2.27344 83.7031 2.66406C85.2005 3.05469 86.6165 3.49414 87.9512 3.98242L91.2715 13.0156L90.8809 13.2109C89.6113 12.0716 88.1465 11.0137 86.4863 10.0371C84.8262 9.06055 83.0521 8.21419 81.1641 7.49805C79.276 6.7819 77.2904 6.22852 75.207 5.83789C73.1562 5.41471 71.0729 5.20312 68.957 5.20312C64.8555 5.20312 61.0957 5.85417 57.6777 7.15625C54.2598 8.42578 51.3138 10.2812 48.8398 12.7227C46.3984 15.1641 44.4941 18.1589 43.127 21.707C41.7598 25.2552 41.0762 29.2917 41.0762 33.8164C41.0762 38.7969 41.7272 43.4193 43.0293 47.6836C44.3314 51.9479 46.2682 55.6426 48.8398 58.7676C51.4115 61.8926 54.6178 64.3503 58.459 66.1406C62.3327 67.8984 66.8411 68.7773 71.9844 68.7773C74.263 68.7773 76.2975 68.5983 78.0879 68.2402C79.8783 67.8822 81.3919 67.4427 82.6289 66.9219C83.8659 66.3685 84.7936 65.7826 85.4121 65.1641C86.0632 64.513 86.3887 63.9271 86.3887 63.4062V61.502C86.3887 59.2233 86.3561 57.2539 86.291 55.5938C86.2259 53.9336 86.1283 52.5013 85.998 51.2969C85.8678 50.0599 85.7214 49.002 85.5586 48.123C85.3958 47.2441 85.2005 46.4303 84.9727 45.6816V45.4863H96.6914V45.6816C96.4961 46.3652 96.3008 47.179 96.1055 48.123C95.9427 49.0345 95.7962 50.125 95.666 51.3945C95.5358 52.6641 95.4382 54.1615 95.373 55.8867C95.3079 57.5794 95.2754 59.5488 95.2754 61.7949V63.7969Z" fill="#585858"/>
<path d="M0.109375 82.0098H100.891V86.9902H0.109375V82.0098Z" fill="#585858"/>
</svg>
