<svg width="814" height="375" viewBox="0 0 814 375" fill="none" xmlns="http://www.w3.org/2000/svg">
<path d="M648.664 225.137C648.563 226.881 648.39 228.625 648.39 230.369C648.361 245.545 648.549 260.735 648.318 275.91C648.16 285.97 651.229 294.703 658.19 301.837C679.419 323.57 675.182 322.302 675.6 348.632C675.773 360.248 677.3 362.295 688.426 365.71C689.637 366.085 691.222 368.117 691.092 369.212C690.963 370.337 688.988 372.138 687.792 372.152C673.87 372.354 659.934 372.21 646.012 372.34C642.539 372.369 642.207 370.466 642.222 367.8C642.265 356.833 642.222 345.851 642.222 334.883C642.222 299.776 642.337 264.655 642.107 229.547C642.078 223.797 641.112 217.903 639.613 212.34C638.143 206.863 633.849 203.649 628.156 202.468C623.919 201.588 623.933 201.502 624.625 196.256H699.682C699.812 197.942 699.956 199.657 700.071 201.243C688.83 205.883 686.192 210.711 690.833 222.14C694.45 231.032 699.61 239.347 704.596 247.62C714.295 263.732 724.355 279.643 735.106 297.009C740.611 286.056 746.16 276.444 750.224 266.24C751.795 262.291 750.426 256.93 749.619 252.361C748.956 248.643 747.154 245.112 745.814 241.524C742.802 233.496 743.35 225.772 747.601 218.292C751.204 211.936 754.591 205.436 758.352 199.167C759.217 197.726 761.249 196.098 762.762 196.069C779.408 195.853 796.068 195.925 812.93 195.925C814.011 199.657 814.169 201.906 809.442 202.583C801.458 203.736 797.711 209.544 796.198 216.836C795.42 220.569 795.203 224.46 795.189 228.279C795.117 265.591 795.146 302.889 795.16 340.201C795.16 342.392 795.261 344.597 795.521 346.759C797.077 359.571 800.665 363.635 813.189 366.647C813.29 367.411 813.506 368.276 813.492 369.14C813.492 370.005 813.233 370.87 812.988 372.297C806.848 372.297 800.838 372.297 794.829 372.297C779.797 372.297 764.766 372.383 749.749 372.181C747.889 372.152 744.935 370.942 744.431 369.558C743.206 366.258 746.218 366.143 748.624 365.624C754.951 364.269 758.943 360.104 760.644 354.066C761.667 350.405 762.33 346.514 762.344 342.724C762.489 317.128 762.416 291.518 762.402 265.908C762.402 264.856 762.2 263.819 761.912 260.994C760.269 263.776 759.39 265.188 758.583 266.643C747.616 286.489 736.663 306.348 725.695 326.193C721.732 333.356 718.475 333.413 714.007 326.352C693.614 294.012 673.25 261.657 652.872 229.317C651.921 227.804 650.855 226.348 649.846 224.864C649.442 224.964 649.039 225.065 648.635 225.152L648.664 225.137Z" fill="white"/>
<path d="M316.929 305.21C319.033 316.509 324.106 325.184 331.687 332.347C345.076 345.015 362.341 346.874 378.987 338.962C385.054 336.08 392.188 335.244 398.933 334.005C403.227 333.212 407.724 333.659 412.076 333.097C416.846 332.477 420.766 330.474 422.294 325.242C422.611 324.19 424.557 323.181 425.868 323.037C426.517 322.965 428.059 324.867 428.073 325.876C428.145 341.239 428.044 356.602 427.944 371.965C427.944 372.268 427.583 372.571 427.151 373.234C397.65 372.945 368.927 368.867 343.548 351.832C329.28 342.248 323.083 334.293 311.179 312.617C311.179 314.606 311.15 316.609 311.179 318.598C311.309 328.283 311.02 338.011 311.727 347.652C312.577 359.369 317.275 364.096 329.093 366.503V371.864C327.753 372.023 326.513 372.297 325.274 372.297C305.285 372.326 285.31 372.34 265.321 372.297C263.101 372.297 259.815 373.046 260.334 369.299C260.521 367.944 262.813 366.287 264.456 365.826C270.696 364.096 274.803 360.248 276.547 354.21C277.599 350.564 278.248 346.658 278.248 342.868C278.363 303.538 278.406 264.208 278.19 224.864C278.161 220.41 276.98 215.813 275.51 211.547C273.809 206.575 269.86 203.304 264.586 202.597C260.305 202.021 259.325 200.205 260.853 195.896C262.784 195.896 264.758 195.896 266.747 195.896C298.28 195.954 329.813 195.752 361.347 196.141C381.062 196.386 400.057 200.119 416.4 212.124C443.004 231.68 443.926 265.678 418.417 286.748C402.089 300.238 382.618 304.619 362.038 305.123C349.212 305.44 336.371 305.181 323.53 305.195C321.57 305.195 319.61 305.195 316.929 305.195V305.21ZM311.165 267.782C311.165 276.746 311.338 285.696 311.093 294.646C310.992 298.623 312.116 300.108 316.324 300.05C330.794 299.82 345.277 300.122 359.747 299.921C371.997 299.748 382.071 294.675 389.767 285.163C403.717 267.912 405.029 238.67 392.735 220.151C386.25 210.394 377.43 204.111 365.685 202.179C353.074 200.104 348.607 202.079 344.139 214.213C340.262 224.763 334.483 230.672 322.319 229.749C314.566 229.158 311.265 233.439 311.193 241.452C311.107 250.229 311.179 259.005 311.179 267.782H311.165Z" fill="white"/>
<path d="M698.044 170.244C699.889 175.706 696.675 176.08 693.015 176.08C674.322 176.08 655.63 176.066 636.938 176.095C631.995 176.095 627.037 176.47 622.108 176.268C620.739 176.21 619.428 174.711 618.088 173.875C619.154 172.535 619.976 170.489 621.359 169.97C627.888 167.505 630.669 163.888 629.314 157.014C628.406 152.431 627.109 147.473 624.472 143.769C613.75 128.781 602.436 114.196 591.065 99.1212C579.766 105.866 568.943 112.423 562.588 123.477C555.468 135.857 556.693 149.174 561.766 162.043C563.712 166.972 568.381 169.019 573.512 170.114C574.722 170.373 576.077 172.232 576.365 173.558C576.509 174.25 574.463 176.225 573.411 176.239C551.635 176.397 529.858 176.354 507.851 176.354C506.886 173.025 505.906 170.503 510.633 169.84C518.314 168.759 522.465 163.6 524.18 156.495C525.074 152.791 525.477 148.9 525.492 145.095C525.578 107.062 525.607 69.0149 525.463 30.9821C525.448 26.4856 524.699 21.845 523.416 17.5215C521.644 11.5261 517.522 7.31789 510.993 6.56848C506.54 6.06406 506.713 3.70052 507.578 0.270508H558.149V115.32C559.114 115.522 559.604 115.781 559.777 115.637C572.69 104.886 585.632 94.1636 598.43 83.2826C602.739 79.622 606.89 75.7164 610.81 71.6235C621.388 60.5408 626.792 47.3395 626.619 31.9189C626.504 21.528 626.591 11.137 626.591 0.371391H675.029C675.72 3.57082 676.254 6.03524 671.383 6.62612C664.681 7.4476 661.28 10.9929 660.228 17.5935C659.666 21.1821 659.622 24.8859 659.709 28.5177C660.3 51.6919 650.673 68.6835 629.502 78.815C627.686 79.6797 625.956 80.7173 624.213 81.7262C623.751 82 623.391 82.4323 622.685 83.0665C632.557 96.6712 642.343 110.334 652.301 123.866C660.098 134.473 667.88 145.124 676.095 155.399C681.831 162.562 688.316 169.134 698.102 170.215L698.044 170.244Z" fill="white"/>
<path d="M130.803 49.0004C128.051 35.9721 125.284 33.7527 112.111 33.7527C107.528 33.7527 102.931 33.4644 98.3624 33.8103C89.2109 34.5021 82.0915 30.8703 75.7791 24.6012C70.9943 19.8453 66.1664 14.9741 60.6899 11.0829C50.7457 4.02106 38.4092 4.17959 31.6789 10.6361C24.8621 17.1791 24.6459 28.0312 31.405 38.9842C38.3227 50.1966 48.4831 58.051 59.7387 64.3922C67.8526 68.9608 76.442 72.7223 84.8153 76.8296C104.329 86.3991 121.868 98.4185 134.061 116.895C139.061 124.461 142.506 132.675 142.664 141.986C142.895 155.201 136.727 165.073 124.88 169.671C115.34 173.374 104.747 175.882 94.5721 176.098C64.5378 176.747 34.4604 175.969 4.41168 175.853C1.0249 175.853 -0.0127514 174.571 0.0160723 171.314C0.145779 157.968 0.189014 144.608 0.00166046 131.263C-0.0703987 126.493 2.20667 126.147 6.09786 127.228C6.37169 128.583 6.64551 129.98 6.94816 131.378C8.63435 138.945 12.5544 142.403 20.3223 142.648C26.9086 142.865 33.538 142.994 40.1098 142.634C47.8489 142.202 54.0316 145.127 59.4361 150.229C63.6875 154.25 67.7373 158.501 72.1185 162.378C78.0705 167.639 84.9882 170.622 93.1597 170.362C102.599 170.06 110.137 163.791 109.791 154.322C109.56 148.038 107.672 141.222 104.574 135.76C96.9212 122.256 84.1956 113.955 70.7782 106.907C62.8517 102.742 54.4207 99.5427 46.3501 95.6515C27.9174 86.7738 12.8426 74.2211 6.16992 54.2895C3.74874 47.0836 2.84079 38.7392 3.69109 31.2018C5.82404 12.3799 20.4088 0.562223 41.6086 0.216339C68.5443 -0.230428 95.4944 0.187515 122.445 0.331634C126.955 0.360457 133.455 -0.763665 135.487 1.6287C137.908 4.49665 136.683 10.5784 136.727 15.2623C136.842 24.9615 136.611 34.6606 136.828 44.3454C136.928 48.741 135.574 50.5569 130.803 49.0004Z" fill="white"/>
<path d="M156.299 175.925V170.809C169.284 167.408 173.752 162.58 173.853 149.191C174.155 108.42 174.141 67.6635 173.853 26.8925C173.766 14.2677 170.048 10.3045 158.461 6.16826C157.034 5.66385 156.4 2.95443 154.656 0C158.245 0 160.032 0 161.805 0C193.683 0.0576473 225.562 -0.0720591 257.441 0.230589C274.476 0.389119 290.963 3.57413 306.024 12.1059C330.798 26.1286 339.661 52.5455 327.108 75.518C320.536 87.5519 310.189 95.4784 297.838 101.013C282.979 107.671 267.227 109.443 251.172 109.458C238.158 109.458 225.159 109.588 212.145 109.386C208.326 109.328 207.043 110.524 207.115 114.372C207.332 126.075 206.986 137.777 207.303 149.465C207.62 161.672 211.381 166.212 222.853 170.146C223.92 170.506 224.467 172.394 225.26 173.562C223.833 174.498 222.406 176.242 220.979 176.257C200.284 176.43 179.574 176.358 158.865 176.343C158.158 176.343 157.452 176.113 156.314 175.911L156.299 175.925ZM207.173 71.5115C207.173 80.836 207.303 90.146 207.101 99.4704C207.029 103.102 208.34 104.183 211.886 104.14C226.168 103.981 240.45 104.183 254.732 104.053C268.74 103.924 280.126 98.159 287.605 86.3845C299.682 67.4041 300.23 47.3861 290.286 27.4257C284.435 15.6801 274.606 8.38768 261.289 6.25473C248.866 4.2659 244.211 6.4565 239.845 18.4616C236.098 28.7372 230.477 35.3378 218.529 33.6372C218.169 33.5796 217.794 33.666 217.434 33.7093C210.387 34.3722 207.245 37.6149 207.173 44.6623C207.086 53.612 207.159 62.5762 207.144 71.5259L207.173 71.5115Z" fill="white"/>
<path d="M389.407 72.5072C389.292 74.7699 389.133 76.5425 389.133 78.3152C389.119 107.024 389.22 135.746 389.018 164.455C388.989 169.081 390.387 170.407 394.912 170.234C412.106 169.614 429.414 170.306 446.478 168.476C455.399 167.524 464.277 163.114 472.448 158.877C480.288 154.828 485.649 147.823 487.004 138.658C487.595 134.622 489.771 134.565 493.403 135.761C493.403 148.213 493.475 160.794 493.273 173.376C493.259 174.384 491.515 175.566 490.333 176.301C489.67 176.719 488.546 176.402 487.624 176.402C439.791 176.402 391.944 176.402 344.111 176.402C343.188 176.402 342.093 176.705 341.401 176.316C340.22 175.624 338.577 174.543 338.476 173.505C338.375 172.439 339.658 170.522 340.738 170.162C351.461 166.573 355.165 162.106 356.073 150.922C356.303 148.184 356.462 145.445 356.462 142.707C356.491 106.317 356.577 69.9131 356.375 33.5232C356.346 27.9458 355.453 22.2243 353.997 16.8199C352.484 11.1561 348.247 7.39457 342.237 6.63074C337.899 6.08309 337.726 3.86367 338.807 0.318359H485.995C485.995 13.2025 486.053 25.7552 485.894 38.3224C485.894 39.3024 484.41 40.9453 483.488 41.0462C482.436 41.1615 480.418 40.0662 480.23 39.1871C475.417 17.1802 458.065 10.4643 439.229 7.7981C423.044 5.52103 406.427 6.27044 389.551 5.67956V67.4775C393.241 67.4775 396.988 67.4775 400.735 67.4775C425.105 67.5639 449.49 67.7513 473.86 67.6792C478.242 67.6648 480 68.6737 479.885 73.4296C479.582 86.2273 479.827 99.025 479.74 111.837C479.74 113.956 480.764 117.371 476.873 116.852C475.475 116.665 473.644 114.388 473.241 112.759C471.165 104.588 467.375 101.216 459.045 101.1C452.444 100.999 445.844 100.841 439.258 101.144C432.34 101.446 426.705 98.9529 421.978 94.2114C417.712 89.9311 413.778 85.3337 409.425 81.1543C404.035 75.966 397.752 72.5793 389.422 72.5216L389.407 72.5072Z" fill="white"/>
<path d="M548.313 196.116H616.496C616.77 198.754 618.499 201.29 614.031 202.385C604.592 204.691 600.355 209.678 599.274 219.593C598.841 223.585 598.899 227.62 598.885 231.641C598.856 256.141 598.913 280.656 598.856 305.156C598.784 339.716 577.67 366.493 545.82 372.503C509.099 379.435 476.009 362.486 463.255 330.103C458.47 317.968 457.807 305.214 457.894 292.344C458.11 262.54 458.225 232.737 458.369 202.933C458.369 200.8 458.369 198.653 458.369 196.217H506.98C507.773 199.445 508.205 201.722 503.709 202.501C495.105 203.985 491.545 208.482 491.488 217.316C491.387 230.661 491.257 244.021 491.531 257.366C491.718 266.504 488.317 273.753 480.304 277.802C466.915 284.576 463.471 295.154 465.33 309.22C467.377 324.756 472.291 338.721 483.648 349.876C510.771 376.495 551.902 365.974 562.466 329.527C564.484 322.58 565.694 315.158 565.795 307.952C566.17 280.339 566.04 252.726 565.853 225.113C565.824 220.818 564.901 216.365 563.547 212.257C561.774 206.882 557.71 203.25 551.945 202.573C547.766 202.083 547.103 200.152 548.299 196.116H548.313Z" fill="white"/>
<path d="M184.928 202.644V209.058C184.928 252.956 184.899 296.869 184.971 340.767C184.971 344.572 185.346 348.449 186.096 352.167C187.623 359.676 192.091 364.432 199.888 365.988C201.113 366.233 202.021 368.135 203.073 369.274C201.891 370.283 200.724 372.156 199.542 372.171C177.938 372.344 156.335 372.3 134.199 372.3C134.04 370.211 133.91 368.525 133.795 366.939C147.774 362.601 151.204 358.768 151.594 344.14C152.127 323.488 151.911 302.807 151.954 282.14C151.997 257.813 151.954 233.486 151.954 209.144V202.63C143.35 201.491 137.268 204.359 132.786 210.729C131.1 213.122 129.616 215.658 128.102 218.166C124.009 224.94 117.942 228.427 110.145 229.321C95.7189 230.978 95.719 231.021 91.6693 245.058C89.1184 245.246 85.9766 246.629 85.9766 241.945C85.9766 227.317 86.0342 212.675 86.0918 198.047C86.0918 197.557 86.4522 197.053 86.7548 196.274H251.871V244.929C250.156 245.087 248.441 245.246 246.395 245.433C245.919 243.416 245.53 241.7 245.098 239.971C243.397 233.14 239.736 229.609 232.79 229.652C221.087 229.695 212.959 224.695 207.627 214.361C203.101 205.599 195.997 201.016 184.914 202.688L184.928 202.644Z" fill="white"/>
</svg>
