<svg width="121" height="86" viewBox="0 0 121 86" fill="none" xmlns="http://www.w3.org/2000/svg">
<path d="M17.8242 66.7031C21.6654 66.7031 25.1973 66.5404 28.4199 66.2148C31.6426 65.8893 34.4583 65.515 36.8672 65.0918C39.6667 64.6361 42.222 64.099 44.5332 63.4805L43.1172 71.3906C42.7266 71.3581 42.1406 71.3255 41.3594 71.293C40.5781 71.2604 39.6992 71.2279 38.7227 71.1953C37.7786 71.1628 36.7695 71.1302 35.6953 71.0977C34.6536 71.0977 33.6608 71.0814 32.7168 71.0488C31.7728 71.0488 30.9264 71.0326 30.1777 71C29.4616 71 28.9408 71 28.6152 71H7.52148V70.8047C7.7168 70.1211 7.89583 69.2747 8.05859 68.2656C8.25391 67.2565 8.41667 66.0033 8.54688 64.5059C8.67708 63.0085 8.77474 61.2344 8.83984 59.1836C8.90495 57.1003 8.9375 54.6751 8.9375 51.9082V20.1211C8.9375 17.3542 8.90495 14.9453 8.83984 12.8945C8.77474 10.8112 8.67708 9.02083 8.54688 7.52344C8.41667 5.99349 8.25391 4.72396 8.05859 3.71484C7.89583 2.70573 7.7168 1.85938 7.52148 1.17578V0.980469H19.2402V1.17578C19.0449 1.85938 18.8496 2.70573 18.6543 3.71484C18.4915 4.72396 18.3451 5.99349 18.2148 7.52344C18.1172 9.02083 18.0195 10.8112 17.9219 12.8945C17.8568 14.9453 17.8242 17.3542 17.8242 20.1211V66.7031ZM56.252 0.980469L106.545 54.4961V20.1211C106.545 17.3542 106.512 14.9453 106.447 12.8945C106.382 10.8112 106.285 9.02083 106.154 7.52344C106.024 5.99349 105.861 4.72396 105.666 3.71484C105.503 2.70573 105.324 1.85938 105.129 1.17578V0.980469H113.82V1.17578C113.625 1.85938 113.446 2.70573 113.283 3.71484C113.12 4.72396 112.974 5.99349 112.844 7.52344C112.714 9.02083 112.616 10.8112 112.551 12.8945C112.486 14.9453 112.453 17.3542 112.453 20.1211V71.9766H110.744L60.4512 18.5098V51.9082C60.4512 54.6751 60.4837 57.1003 60.5488 59.1836C60.6139 61.2344 60.7116 63.0085 60.8418 64.5059C60.972 66.0033 61.1185 67.2565 61.2812 68.2656C61.444 69.2747 61.623 70.1211 61.8184 70.8047V71H53.127V70.8047C53.3223 70.1211 53.5013 69.2747 53.6641 68.2656C53.8594 67.2565 54.0221 66.0033 54.1523 64.5059C54.2826 63.0085 54.3802 61.2344 54.4453 59.1836C54.5104 57.1003 54.543 54.6751 54.543 51.9082V20.1211C54.543 17.3542 54.5104 14.9453 54.4453 12.8945C54.3802 10.8112 54.2826 9.02083 54.1523 7.52344C54.0221 5.99349 53.8594 4.72396 53.6641 3.71484C53.5013 2.70573 53.3223 1.85938 53.127 1.17578V0.980469H56.252Z" fill="#585858"/>
<path d="M0.539062 81.0098H120.412V85.9902H0.539062V81.0098Z" fill="#585858"/>
</svg>
