<svg width="1280" height="161" viewBox="0 0 1280 161" fill="none" xmlns="http://www.w3.org/2000/svg">
<path d="M1131.48 26.341C1131.39 27.9118 1131.23 29.4825 1131.23 31.0532C1131.21 44.7224 1131.37 58.4045 1131.17 72.0737C1131.02 81.1345 1133.79 89.0011 1140.06 95.4268C1159.18 115.002 1155.36 113.86 1155.74 137.577C1155.9 148.039 1157.27 149.883 1167.29 152.959C1168.38 153.297 1169.81 155.127 1169.69 156.114C1169.58 157.126 1167.8 158.749 1166.72 158.762C1154.18 158.944 1141.63 158.814 1129.09 158.931C1125.96 158.957 1125.66 157.243 1125.68 154.842C1125.71 144.963 1125.68 135.071 1125.68 125.193C1125.68 93.5705 1125.78 61.9354 1125.57 30.3133C1125.55 25.1338 1124.68 19.8245 1123.33 14.8138C1122 9.88091 1118.13 6.98611 1113.01 5.92166C1109.19 5.1298 1109.2 5.05192 1109.83 0.326774H1177.43C1177.55 1.84557 1177.68 3.39033 1177.78 4.81826C1167.66 8.99819 1165.28 13.3469 1169.46 23.6409C1172.72 31.6503 1177.37 39.1405 1181.86 46.5916C1190.59 61.1046 1199.65 75.4358 1209.34 91.0781C1214.3 81.2124 1219.3 72.554 1222.96 63.3633C1224.37 59.8065 1223.14 54.9775 1222.41 50.8624C1221.81 47.5133 1220.19 44.3329 1218.98 41.1006C1216.27 33.8701 1216.76 26.9122 1220.59 20.175C1223.84 14.4503 1226.89 8.59578 1230.28 2.94897C1231.06 1.65085 1232.89 0.183981 1234.25 0.158019C1249.24 -0.0366986 1264.25 0.0282072 1279.44 0.0282072C1280.41 3.39033 1280.55 5.41539 1276.3 6.02551C1269.1 7.064 1265.73 12.2954 1264.37 18.8639C1263.67 22.226 1263.47 25.7309 1263.46 29.1709C1263.39 62.7792 1263.42 96.3744 1263.43 129.983C1263.43 131.956 1263.52 133.942 1263.76 135.889C1265.16 147.429 1268.39 151.09 1279.67 153.803C1279.76 154.491 1279.96 155.27 1279.94 156.049C1279.94 156.828 1279.71 157.607 1279.49 158.892C1273.96 158.892 1268.55 158.892 1263.13 158.892C1249.59 158.892 1236.05 158.97 1222.53 158.788C1220.85 158.762 1218.19 157.671 1217.74 156.425C1216.63 153.453 1219.35 153.349 1221.52 152.881C1227.21 151.661 1230.81 147.91 1232.34 142.471C1233.26 139.173 1233.86 135.668 1233.87 132.254C1234 109.2 1233.94 86.1323 1233.93 63.0647C1233.93 62.1171 1233.74 61.1825 1233.48 58.6382C1232 61.1435 1231.21 62.4157 1230.49 63.7268C1220.61 81.6018 1210.74 99.4899 1200.86 117.365C1197.29 123.817 1194.36 123.869 1190.33 117.508C1171.97 88.378 1153.62 59.2353 1135.27 30.1056C1134.41 28.7425 1133.45 27.4314 1132.54 26.0944C1132.18 26.1853 1131.82 26.2761 1131.45 26.354L1131.48 26.341Z" fill="white"/>
<path d="M832.682 98.4643C834.577 108.642 839.147 116.456 845.975 122.908C858.034 134.318 873.586 135.993 888.579 128.866C894.044 126.27 900.47 125.517 906.545 124.401C910.413 123.687 914.463 124.089 918.384 123.583C922.68 123.025 926.211 121.22 927.587 116.508C927.873 115.56 929.625 114.652 930.807 114.522C931.391 114.457 932.78 116.171 932.793 117.079C932.858 130.917 932.767 144.755 932.676 158.593C932.676 158.866 932.351 159.138 931.962 159.735C905.39 159.476 879.518 155.802 856.658 140.458C843.807 131.826 838.225 124.66 827.503 105.137C827.503 106.928 827.477 108.732 827.503 110.524C827.619 119.247 827.36 128.009 827.996 136.694C828.762 147.247 832.994 151.505 843.638 153.673V158.502C842.431 158.645 841.315 158.892 840.198 158.892C822.193 158.918 804.201 158.931 786.197 158.892C784.197 158.892 781.238 159.567 781.705 156.192C781.874 154.971 783.938 153.478 785.418 153.063C791.038 151.505 794.738 148.039 796.309 142.6C797.256 139.316 797.841 135.798 797.841 132.384C797.944 96.9585 797.983 61.5329 797.789 26.0943C797.763 22.0831 796.698 17.9421 795.374 14.0997C793.842 9.62117 790.286 6.67445 785.534 6.03837C781.679 5.51912 780.796 3.8835 782.172 0.00212945C783.912 0.00212945 785.69 0.00212945 787.482 0.00212945C815.884 0.0540541 844.287 -0.127682 872.69 0.222809C890.448 0.443489 907.557 3.80561 922.278 14.6189C946.241 32.2344 947.072 62.8569 924.095 81.8354C909.388 93.9858 891.85 97.932 873.313 98.3864C861.76 98.672 850.194 98.4383 838.627 98.4513C836.862 98.4513 835.097 98.4513 832.682 98.4513V98.4643ZM827.49 64.7522C827.49 72.8265 827.645 80.8878 827.425 88.9491C827.334 92.5319 828.346 93.8689 832.137 93.817C845.17 93.6093 858.216 93.8819 871.249 93.7002C882.283 93.5444 891.357 88.975 898.289 80.4075C910.855 64.869 912.036 38.5302 900.963 21.8494C895.121 13.0612 887.177 7.40139 876.597 5.66192C865.239 3.79263 861.215 5.57105 857.191 16.5012C853.699 26.0034 848.493 31.3257 837.537 30.4949C830.553 29.9627 827.58 33.8181 827.516 41.0356C827.438 48.9411 827.503 56.8467 827.503 64.7522H827.49Z" fill="white"/>
<path d="M628.745 153.348C630.406 158.268 627.511 158.606 624.214 158.606C607.378 158.606 590.541 158.593 573.704 158.619C569.252 158.619 564.786 158.956 560.347 158.775C559.114 158.723 557.932 157.373 556.725 156.62C557.686 155.412 558.426 153.569 559.672 153.102C565.552 150.882 568.058 147.624 566.837 141.432C566.02 137.304 564.851 132.838 562.476 129.502C552.818 116.002 542.628 102.865 532.385 89.2863C522.208 95.3615 512.459 101.268 506.735 111.225C500.322 122.375 501.425 134.37 505.995 145.962C507.747 150.402 511.953 152.245 516.574 153.232C517.665 153.465 518.885 155.14 519.145 156.334C519.274 156.957 517.431 158.736 516.483 158.749C496.869 158.891 477.254 158.852 457.432 158.852C456.562 155.854 455.68 153.582 459.938 152.985C466.856 152.011 470.595 147.364 472.14 140.964C472.945 137.628 473.308 134.123 473.321 130.696C473.399 96.439 473.425 62.1687 473.295 27.9114C473.282 23.8613 472.607 19.6813 471.452 15.787C469.855 10.3868 466.143 6.59632 460.262 5.9213C456.251 5.46696 456.407 3.33805 457.186 0.248535H502.736V103.877C503.606 104.059 504.048 104.293 504.203 104.163C515.834 94.4788 527.492 84.8208 539.019 75.0201C542.9 71.7228 546.639 68.2049 550.17 64.5183C559.698 54.5358 564.566 42.645 564.41 28.7552C564.306 19.3958 564.384 10.0363 564.384 0.339403H608.014C608.637 3.22122 609.117 5.441 604.729 5.97323C598.693 6.71316 595.63 9.90652 594.682 15.8519C594.176 19.0842 594.137 22.4204 594.215 25.6916C594.747 46.5653 586.075 61.8701 567.006 70.9959C565.371 71.7748 563.813 72.7094 562.242 73.6181C561.827 73.8647 561.502 74.2542 560.866 74.8253C569.758 87.0796 578.572 99.3857 587.542 111.575C594.565 121.129 601.575 130.722 608.974 139.978C614.141 146.429 619.982 152.349 628.797 153.322L628.745 153.348Z" fill="white"/>
<path d="M117.819 44.1381C115.339 32.4032 112.847 30.4041 100.982 30.4041C96.854 30.4041 92.713 30.1445 88.598 30.456C80.3549 31.0791 73.9422 27.8078 68.2565 22.161C63.9467 17.8773 59.598 13.4896 54.6652 9.9847C45.7082 3.62393 34.5963 3.76672 28.5341 9.58228C22.394 15.4757 22.1993 25.2506 28.2875 35.1162C34.5184 45.2156 43.6701 52.2903 53.8084 58.002C61.1168 62.1171 68.8536 65.5051 76.3957 69.2048C93.9722 77.8243 109.77 88.6506 120.752 105.292C125.257 112.108 128.359 119.507 128.502 127.893C128.71 139.796 123.154 148.688 112.483 152.829C103.89 156.166 94.3486 158.424 85.1839 158.619C58.1312 159.203 31.0395 158.502 3.97373 158.398C0.923158 158.398 -0.0114855 157.243 0.0144768 154.309C0.131307 142.289 0.170251 130.255 0.00149563 118.235C-0.0634102 113.938 1.98761 113.626 5.49253 114.6C5.73917 115.82 5.98581 117.079 6.25842 118.339C7.77721 125.154 11.3081 128.269 18.3049 128.49C24.2373 128.684 30.2087 128.801 36.1281 128.477C43.099 128.087 48.6679 130.723 53.5358 135.318C57.3653 138.94 61.013 142.769 64.9593 146.261C70.3205 150.999 76.5514 153.686 83.9118 153.453C92.4144 153.18 99.2036 147.533 98.892 139.005C98.6843 133.345 96.9838 127.205 94.1928 122.285C87.2998 110.121 75.8375 102.644 63.752 96.2965C56.6124 92.5449 49.0184 89.6631 41.7489 86.1582C25.146 78.1618 11.5677 66.8552 5.55744 48.9022C3.3766 42.4116 2.55879 34.8956 3.32467 28.1064C5.24589 11.153 18.3828 0.50845 37.4781 0.196902C61.7399 -0.205514 86.0147 0.17094 110.289 0.300752C114.353 0.326714 120.207 -0.685817 122.037 1.46906C124.218 4.05231 123.115 9.53036 123.154 13.7492C123.258 22.4856 123.05 31.2219 123.245 39.9452C123.336 43.9045 122.115 45.5401 117.819 44.1381Z" fill="white"/>
<path d="M140.785 158.463V153.855C152.481 150.791 156.505 146.443 156.596 134.383C156.868 97.6595 156.855 60.9488 156.596 24.225C156.518 12.8535 153.169 9.28373 142.732 5.55814C141.447 5.1038 140.875 2.66334 139.305 0.00219727C142.537 0.00219727 144.147 0.00219727 145.743 0.00219727C174.458 0.0541219 203.172 -0.0627085 231.886 0.209896C247.23 0.352689 262.081 3.22153 275.646 10.9064C297.96 23.537 305.944 47.3315 294.637 68.0235C288.718 78.8628 279.397 86.0024 268.273 90.9872C254.889 96.9845 240.701 98.5812 226.24 98.5941C214.518 98.5941 202.809 98.711 191.087 98.5292C187.647 98.4773 186.491 99.5547 186.556 103.021C186.751 113.561 186.439 124.102 186.725 134.63C187.01 145.625 190.399 149.714 200.732 153.258C201.692 153.582 202.185 155.283 202.899 156.334C201.614 157.178 200.329 158.749 199.044 158.762C180.403 158.918 161.749 158.853 143.095 158.84C142.459 158.84 141.823 158.632 140.798 158.45L140.785 158.463ZM186.608 64.4147C186.608 72.8135 186.725 81.1994 186.543 89.5982C186.478 92.8694 187.66 93.843 190.853 93.8041C203.717 93.6613 216.582 93.843 229.446 93.7262C242.064 93.6094 252.319 88.4169 259.056 77.8113C269.934 60.7151 270.427 42.6843 261.47 24.7054C256.2 14.1257 247.347 7.55724 235.352 5.63602C224.163 3.84462 219.97 5.81776 216.036 16.6311C212.661 25.8866 207.599 31.832 196.837 30.3002C196.513 30.2483 196.175 30.3262 195.851 30.3651C189.503 30.9623 186.673 33.883 186.608 40.2308C186.53 48.2921 186.595 56.3664 186.582 64.4277L186.608 64.4147Z" fill="white"/>
<path d="M350.751 65.3102C350.647 67.3483 350.504 68.945 350.504 70.5417C350.491 96.4001 350.582 122.272 350.4 148.13C350.374 152.297 351.633 153.491 355.709 153.336C371.196 152.777 386.786 153.4 402.156 151.752C410.191 150.895 418.188 146.923 425.548 143.106C432.61 139.459 437.439 133.15 438.659 124.894C439.191 121.259 441.151 121.207 444.423 122.285C444.423 133.5 444.488 144.833 444.306 156.165C444.293 157.074 442.722 158.139 441.658 158.801C441.061 159.177 440.048 158.891 439.217 158.891C396.133 158.891 353.035 158.891 309.951 158.891C309.12 158.891 308.133 159.164 307.51 158.814C306.446 158.19 304.966 157.217 304.875 156.282C304.784 155.322 305.94 153.595 306.913 153.271C316.571 150.038 319.907 146.014 320.725 135.941C320.933 133.474 321.076 131.008 321.076 128.542C321.102 95.7641 321.18 62.9736 320.998 30.1962C320.972 25.1725 320.167 20.019 318.856 15.151C317.493 10.0494 313.676 6.66135 308.263 5.97335C304.356 5.48006 304.2 3.48096 305.174 0.287598H437.75C437.75 11.8928 437.802 23.1994 437.66 34.5189C437.66 35.4016 436.323 36.8815 435.492 36.9724C434.544 37.0762 432.727 36.0896 432.558 35.2978C428.222 15.4756 412.593 9.42634 395.627 7.02482C381.049 4.9738 366.081 5.64882 350.88 5.11659V60.7798C354.204 60.7798 357.579 60.7798 360.954 60.7798C382.905 60.8577 404.869 61.0265 426.82 60.9616C430.767 60.9486 432.35 61.8573 432.246 66.141C431.974 77.6683 432.195 89.1956 432.117 100.736C432.117 102.644 433.038 105.721 429.533 105.253C428.274 105.085 426.626 103.034 426.262 101.567C424.393 94.2063 420.979 91.1687 413.476 91.0649C407.53 90.974 401.585 90.8312 395.653 91.1038C389.422 91.3764 384.346 89.1307 380.088 84.8599C376.246 81.0045 372.702 76.8635 368.781 73.0989C363.927 68.4257 358.267 65.3752 350.764 65.3232L350.751 65.3102Z" fill="white"/>
<path d="M1041.09 0.196777H1102.5C1102.75 2.57233 1104.31 4.85702 1100.28 5.84358C1091.78 7.92057 1087.97 12.4121 1086.99 21.3431C1086.6 24.9389 1086.65 28.5736 1086.64 32.1954C1086.62 54.2633 1086.67 76.3443 1086.62 98.4123C1086.55 129.541 1067.53 153.66 1038.84 159.073C1005.77 165.317 975.964 150.051 964.476 120.883C960.166 109.953 959.569 98.4642 959.647 86.872C959.842 60.027 959.945 33.1819 960.075 6.33687C960.075 4.41566 960.075 2.48146 960.075 0.287645H1003.86C1004.57 3.19543 1004.96 5.24645 1000.91 5.94743C993.164 7.28449 989.958 11.3346 989.906 19.2921C989.815 31.3126 989.698 43.3462 989.945 55.3667C990.114 63.5968 987.05 70.1263 979.833 73.774C967.773 79.8752 964.671 89.4033 966.345 102.073C968.188 116.067 972.615 128.645 982.844 138.693C1007.27 162.669 1044.32 153.193 1053.84 120.363C1055.66 114.107 1056.75 107.421 1056.84 100.931C1057.17 76.0587 1057.06 51.1868 1056.89 26.3149C1056.86 22.4465 1056.03 18.4353 1054.81 14.7357C1053.22 9.89371 1049.55 6.62245 1044.36 6.01234C1040.6 5.57098 1040 3.8315 1041.08 0.196777H1041.09Z" fill="white"/>
<path d="M713.769 6.07728V11.8539C713.769 51.3945 713.743 90.9481 713.808 130.489C713.808 133.916 714.146 137.408 714.821 140.757C716.197 147.52 720.221 151.804 727.244 153.206C728.347 153.426 729.165 155.14 730.113 156.166C729.048 157.074 727.997 158.762 726.932 158.775C707.473 158.931 688.015 158.892 668.076 158.892C667.933 157.009 667.816 155.491 667.712 154.063C680.304 150.155 683.393 146.702 683.744 133.526C684.224 114.924 684.029 96.2964 684.068 77.6814C684.107 55.7692 684.068 33.857 684.068 11.9318V6.06429C676.319 5.03878 670.841 7.62203 666.803 13.3597C665.285 15.5146 663.948 17.7993 662.585 20.058C658.898 26.1591 653.433 29.3006 646.41 30.1054C633.416 31.5982 633.416 31.6372 629.768 44.2809C627.471 44.4496 624.641 45.6958 624.641 41.4769C624.641 28.301 624.693 15.1122 624.744 1.93628C624.744 1.49492 625.069 1.04058 625.342 0.3396H774.067V44.164C772.522 44.3068 770.977 44.4496 769.134 44.6184C768.706 42.801 768.355 41.2562 767.966 39.6985C766.434 33.5454 763.137 30.365 756.88 30.404C746.339 30.4429 739.018 25.9385 734.215 16.631C730.139 8.73841 723.739 4.6104 713.756 6.11622L713.769 6.07728Z" fill="white"/>
</svg>
