<svg width="202" height="93" viewBox="0 0 202 93" fill="none" xmlns="http://www.w3.org/2000/svg">
<path d="M161.054 55.8997C161.029 56.3327 160.986 56.7657 160.986 57.1987C160.979 60.9667 161.025 64.7382 160.968 68.5062C160.929 71.0039 161.691 73.1724 163.419 74.9437C168.69 80.3398 167.638 80.0249 167.742 86.5626C167.785 89.4467 168.164 89.9548 170.927 90.8029C171.227 90.8959 171.621 91.4005 171.589 91.6724C171.556 91.9515 171.066 92.3988 170.769 92.4024C167.313 92.4525 163.852 92.4167 160.396 92.4489C159.533 92.4561 159.451 91.9837 159.455 91.3218C159.465 88.5986 159.455 85.8719 159.455 83.1488C159.455 74.432 159.483 65.7115 159.426 56.9947C159.419 55.5669 159.179 54.1034 158.807 52.7222C158.442 51.3624 157.376 50.5644 155.962 50.271C154.91 50.0527 154.914 50.0312 155.085 48.7287H173.721C173.754 49.1474 173.789 49.5732 173.818 49.9668C171.027 51.1191 170.372 52.3178 171.524 55.1554C172.422 57.3633 173.703 59.428 174.942 61.4819C177.35 65.4825 179.847 69.433 182.517 73.7449C183.884 71.0254 185.262 68.6386 186.271 66.1052C186.661 65.1247 186.321 63.7935 186.12 62.6592C185.956 61.736 185.508 60.8593 185.176 59.9683C184.428 57.9752 184.564 56.0572 185.619 54.2C186.514 52.622 187.355 51.0081 188.289 49.4515C188.504 49.0937 189.008 48.6894 189.384 48.6822C193.517 48.6285 197.653 48.6464 201.84 48.6464C202.108 49.5732 202.148 50.1314 200.974 50.2996C198.992 50.5859 198.061 52.028 197.686 53.8386C197.492 54.7654 197.439 55.7315 197.435 56.6798C197.417 65.9441 197.424 75.2049 197.428 84.4692C197.428 85.0131 197.453 85.5606 197.517 86.0974C197.904 89.2785 198.795 90.2876 201.904 91.0355C201.929 91.2251 201.983 91.4398 201.98 91.6545C201.98 91.8692 201.915 92.0839 201.854 92.4382C200.33 92.4382 198.838 92.4382 197.346 92.4382C193.613 92.4382 189.881 92.4597 186.153 92.4096C185.691 92.4024 184.957 92.1018 184.832 91.7583C184.528 90.9389 185.276 90.9102 185.873 90.7814C187.444 90.4451 188.436 89.4109 188.858 87.9116C189.112 87.0027 189.276 86.0365 189.28 85.0954C189.316 78.7403 189.298 72.3816 189.294 66.0229C189.294 65.7616 189.244 65.504 189.173 64.8026C188.765 65.4933 188.546 65.8439 188.346 66.2054C185.623 71.1327 182.903 76.0637 180.18 80.9911C179.196 82.7695 178.388 82.7838 177.278 81.0304C172.215 73.0006 167.159 64.9672 162.099 56.9374C161.863 56.5617 161.598 56.2003 161.347 55.8317C161.247 55.8568 161.147 55.8818 161.047 55.9033L161.054 55.8997Z" fill="white"/>
<path d="M78.693 75.781C79.2155 78.5864 80.475 80.7406 82.3572 82.519C85.6815 85.6644 89.9684 86.126 94.1014 84.1615C95.6078 83.4458 97.3791 83.2383 99.0538 82.9305C100.12 82.7337 101.237 82.8447 102.317 82.7051C103.502 82.5512 104.475 82.0538 104.854 80.7549C104.933 80.4937 105.416 80.2432 105.742 80.2074C105.903 80.1895 106.286 80.6619 106.289 80.9123C106.307 84.7269 106.282 88.5414 106.257 92.3559C106.257 92.431 106.168 92.5062 106.06 92.6708C98.7353 92.5992 91.6037 91.5865 85.3022 87.3569C81.7596 84.9773 80.221 83.0021 77.2653 77.6203C77.2653 78.1141 77.2581 78.6115 77.2653 79.1053C77.2975 81.5099 77.2259 83.9253 77.4012 86.3192C77.6124 89.2284 78.7789 90.4021 81.7131 90.9997V92.3308C81.3804 92.3702 81.0726 92.4382 80.7649 92.4382C75.8017 92.4454 70.8421 92.4489 65.879 92.4382C65.3279 92.4382 64.512 92.6243 64.6409 91.6939C64.6874 91.3575 65.2563 90.946 65.6643 90.8315C67.2137 90.4021 68.2335 89.4467 68.6665 87.9474C68.9277 87.0421 69.0887 86.0723 69.0887 85.1312C69.1174 75.3659 69.1281 65.6006 69.0744 55.8317C69.0673 54.726 68.7739 53.5845 68.4089 52.5253C67.9866 51.2908 67.0061 50.4785 65.6965 50.3032C64.6337 50.1601 64.3904 49.7092 64.7697 48.6393C65.2492 48.6393 65.7394 48.6393 66.2332 48.6393C74.0626 48.6536 81.8921 48.6035 89.7215 48.7001C94.6167 48.7609 99.3329 49.6877 103.391 52.6685C109.996 57.5243 110.225 65.9656 103.892 71.1971C99.8374 74.5465 95.0031 75.6343 89.8932 75.7595C86.7085 75.8383 83.5202 75.7738 80.3319 75.7774C79.8453 75.7774 79.3586 75.7774 78.693 75.7774V75.781ZM77.2617 66.488C77.2617 68.7138 77.3046 70.9359 77.2438 73.1581C77.2187 74.1457 77.4979 74.5143 78.5427 74.5C82.1354 74.4427 85.7316 74.5178 89.3243 74.4678C92.3659 74.4248 94.8671 73.1652 96.778 70.8035C100.242 66.5202 100.567 59.2598 97.5151 54.6616C95.9048 52.2391 93.7149 50.6789 90.7986 50.1994C87.6675 49.6841 86.5582 50.1744 85.4489 53.1873C84.4864 55.8067 83.0514 57.2738 80.0313 57.0448C78.1062 56.8981 77.2867 57.9608 77.2688 59.9504C77.2474 62.1296 77.2653 64.3088 77.2653 66.488H77.2617Z" fill="white"/>
<path d="M173.317 42.2699C173.775 43.6261 172.977 43.7191 172.068 43.7191C167.427 43.7191 162.786 43.7155 158.145 43.7227C156.917 43.7227 155.686 43.8157 154.462 43.7656C154.123 43.7513 153.797 43.3792 153.464 43.1716C153.729 42.8388 153.933 42.3307 154.276 42.2019C155.897 41.59 156.588 40.6918 156.252 38.985C156.026 37.847 155.704 36.6161 155.049 35.6965C152.387 31.975 149.578 28.3537 146.755 24.6108C143.949 26.2854 141.262 27.9136 139.684 30.6582C137.916 33.732 138.22 37.0383 139.48 40.2338C139.963 41.4576 141.122 41.9657 142.396 42.2377C142.697 42.3021 143.033 42.7637 143.105 43.0929C143.141 43.2647 142.632 43.7549 142.371 43.7585C136.964 43.7978 131.557 43.7871 126.093 43.7871C125.854 42.9605 125.61 42.3343 126.784 42.1697C128.691 41.9013 129.722 40.6203 130.148 38.8561C130.369 37.9365 130.47 36.9704 130.473 36.0257C130.495 26.5824 130.502 17.1356 130.466 7.69235C130.462 6.5759 130.276 5.42368 129.958 4.35017C129.518 2.86158 128.494 1.8167 126.873 1.63063C125.768 1.50539 125.811 0.91854 126.025 0.0668945H138.582V28.6328C138.822 28.6829 138.943 28.7473 138.986 28.7115C142.192 26.0421 145.406 23.3798 148.583 20.6782C149.653 19.7693 150.684 18.7995 151.657 17.7833C154.284 15.0315 155.625 11.7538 155.582 7.92494C155.554 5.34495 155.575 2.76497 155.575 0.0919429H167.602C167.774 0.886335 167.906 1.49823 166.697 1.64494C165.033 1.84891 164.188 2.72918 163.927 4.36806C163.788 5.25907 163.777 6.17871 163.798 7.08045C163.945 12.8344 161.555 17.0533 156.298 19.5689C155.847 19.7836 155.418 20.0412 154.985 20.2917C154.87 20.3597 154.781 20.467 154.606 20.6245C157.057 24.0024 159.486 27.3947 161.959 30.7548C163.895 33.3884 165.827 36.0328 167.867 38.5842C169.291 40.3626 170.901 41.9944 173.331 42.2627L173.317 42.2699Z" fill="white"/>
<path d="M32.4775 12.1664C31.794 8.93161 31.107 8.38055 27.8364 8.38055C26.6984 8.38055 25.5569 8.30898 24.4226 8.39486C22.1504 8.56662 20.3827 7.66488 18.8153 6.1083C17.6273 4.92745 16.4286 3.71797 15.0688 2.75181C12.5998 0.998425 9.5367 1.03779 7.86561 2.64089C6.17306 4.26545 6.11938 6.95995 7.79763 9.67949C9.51523 12.4634 12.038 14.4136 14.8327 15.9881C16.8473 17.1224 18.98 18.0564 21.059 19.0762C25.904 21.4522 30.2589 24.4366 33.2862 29.024C34.5279 30.9027 35.3831 32.9423 35.4224 35.2539C35.4797 38.5353 33.9482 40.9864 31.0068 42.1279C28.6379 43.0476 26.0078 43.6702 23.4815 43.7239C16.0242 43.8849 8.55623 43.6917 1.09539 43.663C0.254475 43.663 -0.00316606 43.3446 0.00399062 42.5359C0.0361957 39.2223 0.0469308 35.9052 0.00041228 32.5916C-0.0174794 31.4072 0.547899 31.3213 1.51405 31.5897C1.58204 31.9261 1.65003 32.2732 1.72517 32.6203C2.14384 34.4989 3.11715 35.3577 5.04588 35.4185C6.68118 35.4722 8.32722 35.5044 9.95895 35.4149C11.8805 35.3076 13.4156 36.034 14.7575 37.3007C15.8131 38.2991 16.8186 39.3547 17.9064 40.3173C19.3843 41.6234 21.1019 42.3641 23.1308 42.2997C25.4746 42.2245 27.3461 40.668 27.2602 38.317C27.203 36.7568 26.7342 35.0643 25.9649 33.7081C24.0648 30.3552 20.9051 28.294 17.5737 26.5442C15.6056 25.5101 13.5122 24.7157 11.5084 23.7495C6.93167 21.5453 3.18872 18.4285 1.53194 13.4797C0.930782 11.6905 0.705346 9.61866 0.916468 7.74718C1.44606 3.07386 5.06735 0.139622 10.3311 0.0537419C17.019 -0.0571867 23.7105 0.0465852 30.402 0.0823687C31.522 0.0895254 33.1359 -0.189585 33.6404 0.40442C34.2416 1.11651 33.9374 2.62657 33.9482 3.78953C33.9768 6.19776 33.9195 8.60599 33.9732 11.0106C33.9983 12.102 33.6619 12.5529 32.4775 12.1664Z" fill="white"/>
<path d="M38.8103 43.6808V42.4105C42.0344 41.566 43.1437 40.3673 43.1687 37.043C43.2438 26.9199 43.2403 16.8003 43.1687 6.67719C43.1472 3.54256 42.224 2.55852 39.347 1.53153C38.9928 1.40629 38.8353 0.733561 38.4023 0C39.2934 0 39.7371 0 40.1772 0C48.0925 0.0143134 56.0078 -0.0178917 63.9231 0.0572535C68.1527 0.0966153 72.2463 0.887429 75.9857 3.00581C82.1369 6.48754 84.3376 13.0466 81.2208 18.7505C79.5891 21.7384 77.0198 23.7065 73.9532 25.0806C70.2639 26.7338 66.3528 27.1739 62.3665 27.1775C59.1353 27.1775 55.9076 27.2097 52.6764 27.1596C51.7281 27.1453 51.4096 27.4423 51.4275 28.3977C51.4812 31.3034 51.3953 34.209 51.474 37.111C51.5528 40.1419 52.4867 41.269 55.3351 42.2459C55.5999 42.3354 55.7358 42.8042 55.9327 43.094C55.5784 43.3266 55.2241 43.7596 54.8699 43.7632C49.7314 43.8061 44.5893 43.7882 39.4472 43.7846C39.2719 43.7846 39.0965 43.7274 38.8139 43.6773L38.8103 43.6808ZM51.4418 17.7557C51.4418 20.0709 51.474 22.3825 51.4239 24.6977C51.406 25.5995 51.7317 25.8679 52.612 25.8571C56.1581 25.8178 59.7042 25.8678 63.2504 25.8356C66.7285 25.8034 69.5554 24.3721 71.4126 21.4486C74.4112 16.7359 74.5472 11.7656 72.0781 6.80959C70.6253 3.89324 68.1849 2.0826 64.8785 1.553C61.794 1.05919 60.6382 1.6031 59.5539 4.58386C58.6236 7.13522 57.228 8.7741 54.2616 8.35186C54.1721 8.33754 54.0791 8.35901 53.9896 8.36975C52.2398 8.53435 51.4597 9.33948 51.4418 11.0893C51.4204 13.3114 51.4383 15.5372 51.4347 17.7593L51.4418 17.7557Z" fill="white"/>
<path d="M96.6863 18.003C96.6577 18.5648 96.6183 19.005 96.6183 19.4451C96.6147 26.5732 96.6398 33.7048 96.5897 40.8329C96.5825 41.9815 96.9296 42.3107 98.0532 42.2678C102.322 42.1139 106.62 42.2857 110.857 41.8312C113.072 41.5951 115.276 40.5001 117.305 39.448C119.251 38.4425 120.582 36.7035 120.919 34.4276C121.066 33.4257 121.606 33.4114 122.508 33.7084C122.508 36.8001 122.526 39.924 122.475 43.0479C122.472 43.2983 122.039 43.5918 121.745 43.7743C121.581 43.878 121.302 43.7993 121.073 43.7993C109.196 43.7993 97.3161 43.7993 85.4396 43.7993C85.2105 43.7993 84.9386 43.8745 84.7668 43.7778C84.4734 43.6061 84.0655 43.3377 84.0404 43.0801C84.0154 42.8153 84.3338 42.3393 84.6022 42.2499C87.2645 41.3589 88.1842 40.2496 88.4096 37.4728C88.4668 36.7929 88.5062 36.113 88.5062 35.4331C88.5134 26.3978 88.5348 17.3589 88.4847 8.32361C88.4776 6.93879 88.2557 5.51818 87.8943 4.17631C87.5186 2.77002 86.4665 1.83607 84.9744 1.64642C83.8973 1.51044 83.8544 0.959374 84.1227 0.0791016H120.668C120.668 3.27814 120.683 6.39488 120.643 9.5152C120.643 9.75852 120.275 10.1665 120.046 10.1915C119.785 10.2201 119.284 9.94818 119.237 9.7299C118.042 4.26576 113.734 2.59826 109.057 1.93626C105.038 1.37088 100.912 1.55696 96.7221 1.41025V16.7542C97.6381 16.7542 98.5685 16.7542 99.4989 16.7542C105.55 16.7757 111.604 16.8222 117.655 16.8043C118.743 16.8007 119.18 17.0512 119.151 18.232C119.076 21.4096 119.137 24.5872 119.115 27.7683C119.115 28.2943 119.369 29.1424 118.403 29.0136C118.056 28.9671 117.602 28.4017 117.502 27.9973C116.986 25.9684 116.045 25.1311 113.977 25.1025C112.338 25.0774 110.699 25.0381 109.064 25.1132C107.346 25.1883 105.947 24.5693 104.773 23.392C103.714 22.3292 102.737 21.1878 101.657 20.15C100.318 18.8618 98.7582 18.0209 96.6899 18.0066L96.6863 18.003Z" fill="white"/>
<path d="M136.148 48.6943H153.077C153.145 49.3492 153.574 49.979 152.465 50.2509C150.121 50.8235 149.069 52.0616 148.801 54.5235C148.693 55.5147 148.708 56.5166 148.704 57.515C148.697 63.5981 148.711 69.6849 148.697 75.7681C148.679 84.349 143.437 90.9975 135.529 92.4897C126.411 94.2109 118.195 90.0027 115.028 81.9622C113.84 78.9492 113.676 75.7824 113.697 72.5869C113.751 65.1869 113.779 57.7869 113.815 50.3869C113.815 49.8573 113.815 49.3241 113.815 48.7194H125.885C126.082 49.5209 126.189 50.0863 125.073 50.2795C122.936 50.6481 122.052 51.7646 122.038 53.9581C122.013 57.2716 121.981 60.5888 122.049 63.9023C122.095 66.171 121.251 67.9709 119.261 68.9764C115.937 70.6582 115.082 73.2847 115.543 76.7772C116.052 80.6346 117.272 84.1021 120.092 86.8717C126.826 93.4809 137.039 90.8687 139.661 81.8191C140.162 80.0943 140.463 78.2515 140.488 76.4623C140.581 69.6062 140.549 62.7501 140.502 55.894C140.495 54.8276 140.266 53.7219 139.93 52.7021C139.49 51.3674 138.481 50.4656 137.049 50.2974C136.012 50.1758 135.847 49.6963 136.144 48.6943H136.148Z" fill="white"/>
<path d="M45.9127 50.315V51.9074C45.9127 62.807 45.9055 73.7102 45.9234 84.6099C45.9234 85.5546 46.0164 86.5171 46.2025 87.4403C46.5818 89.3047 47.6911 90.4855 49.627 90.872C49.9311 90.9328 50.1566 91.4052 50.4178 91.6878C50.1244 91.9383 49.8345 92.4035 49.5411 92.4071C44.1772 92.45 38.8132 92.4393 33.3169 92.4393C33.2775 91.9204 33.2453 91.5018 33.2167 91.1081C36.6877 90.0311 37.5393 89.0792 37.6359 85.4472C37.7683 80.3194 37.7147 75.1845 37.7254 70.0532C37.7361 64.0129 37.7254 57.9727 37.7254 51.9289V50.3114C35.5891 50.0288 34.0791 50.7408 32.9662 52.3225C32.5475 52.9165 32.179 53.5463 31.8033 54.1689C30.787 55.8507 29.2805 56.7167 27.3446 56.9385C23.7627 57.3501 23.7627 57.3608 22.7572 60.8461C22.1238 60.8926 21.3438 61.2361 21.3438 60.0732C21.3438 56.4412 21.3581 52.8056 21.3724 49.1735C21.3724 49.0519 21.4618 48.9266 21.537 48.7334H62.5341V60.8139C62.1082 60.8533 61.6824 60.8926 61.1743 60.9391C61.0562 60.4382 60.9596 60.0123 60.8522 59.5829C60.43 57.8868 59.5211 57.0101 57.7963 57.0208C54.8907 57.0316 52.8725 55.7899 51.5485 53.2242C50.4249 51.0486 48.6608 49.9107 45.9091 50.3258L45.9127 50.315Z" fill="white"/>
</svg>
