<svg width="161" height="179" viewBox="0 0 161 179" fill="none" xmlns="http://www.w3.org/2000/svg">
<path d="M91.3174 0.116211H159.5C159.774 2.75358 161.503 5.29006 157.035 6.38536C147.596 8.69125 143.358 13.6777 142.278 23.5931C141.845 27.5852 141.903 31.6205 141.889 35.6414C141.86 60.1415 141.917 84.656 141.86 109.156C141.788 143.716 120.674 170.493 88.8241 176.503C52.1028 183.435 19.0132 166.486 6.25872 134.103C1.47399 121.968 0.811091 109.214 0.897562 96.344C1.11374 66.5403 1.22906 36.7367 1.37318 6.93301C1.37318 4.80006 1.37318 2.65269 1.37318 0.217094H49.9842C50.7769 3.44534 51.2092 5.72241 46.7127 6.50065C38.1089 7.98507 34.5492 12.4816 34.4915 21.316C34.3906 34.6614 34.2609 48.0211 34.5347 61.3665C34.7221 70.5036 31.3209 77.7527 23.3079 81.8025C9.91935 88.576 6.4749 99.1543 8.33403 113.22C10.3805 128.756 15.295 142.721 26.6515 153.876C53.7746 180.495 94.9059 169.974 105.47 133.527C107.487 126.58 108.698 119.158 108.799 111.952C109.174 84.3389 109.044 56.7259 108.857 29.1128C108.828 24.8181 107.905 20.3648 106.551 16.2575C104.778 10.8818 100.714 7.25007 94.9492 6.57271C90.7697 6.08271 90.1068 4.15152 91.3029 0.116211H91.3174Z" fill="white"/>
</svg>
