<svg width="170" height="87" viewBox="0 0 170 87" fill="none" xmlns="http://www.w3.org/2000/svg">
<path d="M55.0312 11.209L74.5625 58.6211L93.5566 12.0879C94.3053 10.1673 94.8587 8.53971 95.2168 7.20508C95.5749 5.87044 95.7539 4.73112 95.7539 3.78711C95.7539 3.49414 95.7376 3.20117 95.7051 2.9082C95.6725 2.58268 95.6237 2.33854 95.5586 2.17578V1.98047H105.227V2.17578C104.576 2.89193 103.859 4.03125 103.078 5.59375C102.329 7.15625 101.451 9.0931 100.441 11.4043L74.3672 73.5137H70.6562L51.6621 27.4199L34.3281 73.5137H30.666L6.74023 13.7969C6.1543 12.3971 5.55208 11.0462 4.93359 9.74414C4.34766 8.44206 3.77799 7.27018 3.22461 6.22852C2.70378 5.18685 2.23177 4.30794 1.80859 3.5918C1.35286 2.87565 1.02734 2.40365 0.832031 2.17578V1.98047H14.3574V2.17578C14.2923 2.53385 14.2598 2.81055 14.2598 3.00586C14.2598 3.20117 14.2598 3.42904 14.2598 3.68945C14.2598 4.79622 14.3737 5.9681 14.6016 7.20508C14.862 8.44206 15.3503 9.93945 16.0664 11.6973L34.4258 58.084L51.9551 11.4043L55.0312 11.209ZM156.203 72V71.8047C156.268 71.6419 156.317 71.3978 156.35 71.0723C156.382 70.7467 156.398 70.4538 156.398 70.1934C156.398 69.1842 156.252 68.0775 155.959 66.873C155.699 65.6361 155.178 64.1061 154.396 62.2832L148.488 49.002C146.665 48.9368 144.24 48.9043 141.213 48.9043C138.186 48.9043 134.914 48.9043 131.398 48.9043C128.827 48.9043 126.337 48.9043 123.928 48.9043C121.551 48.9043 119.403 48.9368 117.482 49.002L111.867 61.8926C111.379 63.097 110.858 64.4154 110.305 65.8477C109.751 67.2799 109.475 68.7285 109.475 70.1934C109.475 70.6165 109.507 70.9746 109.572 71.2676C109.637 71.528 109.702 71.707 109.768 71.8047V72H99.8066V71.8047C100.393 71.1862 101.125 70.0957 102.004 68.5332C102.883 66.9382 103.843 64.9525 104.885 62.5762L132.863 0.515625H136.77L163.283 60.1836C163.902 61.5833 164.536 62.9505 165.188 64.2852C165.871 65.5872 166.506 66.7591 167.092 67.8008C167.678 68.8424 168.199 69.7214 168.654 70.4375C169.11 71.1536 169.419 71.6094 169.582 71.8047V72H156.203ZM124.562 44.7051C126.451 44.7051 128.387 44.7051 130.373 44.7051C132.359 44.6725 134.296 44.6562 136.184 44.6562C138.104 44.6237 139.943 44.6074 141.701 44.6074C143.459 44.5749 145.054 44.5423 146.486 44.5098L132.766 13.5039L119.289 44.7051H124.562Z" fill="#585858"/>
<path d="M2.3457 82.0098H103.762V86.9902H2.3457V82.0098ZM100.783 82.0098H168.605V86.9902H100.783V82.0098Z" fill="#585858"/>
</svg>
